<?xml version="1.0" encoding="UTF-8"?>
<svg xmlns="http://www.w3.org/2000/svg" xmlns:xlink="http://www.w3.org/1999/xlink" width="654px" height="474px" viewBox="0 0 654 474" version="1.1">
<defs>
<filter id="alpha" filterUnits="objectBoundingBox" x="0%" y="0%" width="100%" height="100%">
  <feColorMatrix type="matrix" in="SourceGraphic" values="0 0 0 0 1 0 0 0 0 1 0 0 0 0 1 0 0 0 1 0"/>
</filter>
<mask id="mask0">
  <g filter="url(#alpha)">
<rect x="0" y="0" width="654" height="474" style="fill:rgb(0%,0%,0%);fill-opacity:0.2;stroke:none;"/>
  </g>
</mask>
<clipPath id="clip1">
  <rect x="0" y="0" width="654" height="474"/>
</clipPath>
<g id="surface5" clip-path="url(#clip1)">
<path style=" stroke:none;fill-rule:nonzero;fill:rgb(0%,0%,0%);fill-opacity:1;" d="M 192.476562 35.417969 L 136.769531 59.25 C 135.894531 59.625 134.898438 59.625 134.019531 59.253906 L 77.558594 35.425781 C 76.851562 35.132812 76.257812 34.613281 75.878906 33.945312 C 75.375 34.820312 75.269531 35.867188 75.589844 36.824219 C 75.914062 37.777344 76.628906 38.550781 77.558594 38.941406 L 134.019531 62.773438 C 134.898438 63.144531 135.894531 63.140625 136.769531 62.765625 L 192.476562 38.933594 C 193.402344 38.539062 194.113281 37.769531 194.429688 36.816406 C 194.75 35.859375 194.644531 34.816406 194.140625 33.945312 C 193.765625 34.605469 193.179688 35.125 192.476562 35.417969 Z M 192.476562 35.417969 "/>
</g>
</defs>
<g id="surface1">
<path style=" stroke:none;fill-rule:nonzero;fill:rgb(94.901961%,94.901961%,94.901961%);fill-opacity:1;" d="M 416.761719 355.53125 L 416.761719 469.855469 L 130.460938 469.855469 C 97.84375 469.855469 71.300781 444.210938 71.300781 412.691406 C 71.300781 381.175781 97.84375 355.53125 130.460938 355.53125 Z M 416.761719 355.53125 "/>
<path style=" stroke:none;fill-rule:nonzero;fill:rgb(0.392157%,76.470588%,4.705882%);fill-opacity:1;" d="M 423.792969 468.976562 C 423.792969 471.402344 421.824219 473.371094 419.398438 473.371094 L 125.363281 473.371094 C 92.105469 473.371094 65.148438 446.402344 65.148438 413.132812 C 65.148438 379.863281 92.105469 352.894531 125.363281 352.894531 L 419.398438 352.894531 C 421.824219 352.894531 423.792969 354.863281 423.792969 357.289062 C 423.792969 359.71875 421.824219 361.6875 419.398438 361.6875 L 125.363281 361.6875 C 96.960938 361.6875 73.9375 384.71875 73.9375 413.132812 C 73.9375 441.546875 96.960938 464.578125 125.363281 464.578125 L 419.398438 464.578125 C 421.824219 464.578125 423.792969 466.546875 423.792969 468.976562 Z M 423.792969 468.976562 "/>
<path style=" stroke:none;fill-rule:nonzero;fill:rgb(80%,80%,80%);fill-opacity:1;" d="M 416.761719 381.914062 L 109.101562 381.914062 C 108.613281 381.914062 108.222656 381.519531 108.222656 381.035156 C 108.222656 380.546875 108.613281 380.15625 109.101562 380.15625 L 416.761719 380.15625 C 417.246094 380.15625 417.640625 380.546875 417.640625 381.035156 C 417.640625 381.519531 417.246094 381.914062 416.761719 381.914062 Z M 416.761719 381.914062 "/>
<path style=" stroke:none;fill-rule:nonzero;fill:rgb(80%,80%,80%);fill-opacity:1;" d="M 416.761719 403.019531 L 109.101562 403.019531 C 108.613281 403.019531 108.222656 402.625 108.222656 402.140625 C 108.222656 401.65625 108.613281 401.261719 109.101562 401.261719 L 416.761719 401.261719 C 417.246094 401.261719 417.640625 401.65625 417.640625 402.140625 C 417.640625 402.625 417.246094 403.019531 416.761719 403.019531 Z M 416.761719 403.019531 "/>
<path style=" stroke:none;fill-rule:nonzero;fill:rgb(80%,80%,80%);fill-opacity:1;" d="M 416.761719 424.125 L 109.101562 424.125 C 108.613281 424.125 108.222656 423.730469 108.222656 423.246094 C 108.222656 422.761719 108.613281 422.367188 109.101562 422.367188 L 416.761719 422.367188 C 417.246094 422.367188 417.640625 422.761719 417.640625 423.246094 C 417.640625 423.730469 417.246094 424.125 416.761719 424.125 Z M 416.761719 424.125 "/>
<path style=" stroke:none;fill-rule:nonzero;fill:rgb(80%,80%,80%);fill-opacity:1;" d="M 416.761719 445.230469 L 109.101562 445.230469 C 108.613281 445.230469 108.222656 444.835938 108.222656 444.351562 C 108.222656 443.867188 108.613281 443.472656 109.101562 443.472656 L 416.761719 443.472656 C 417.246094 443.472656 417.640625 443.867188 417.640625 444.351562 C 417.640625 444.835938 417.246094 445.230469 416.761719 445.230469 Z M 416.761719 445.230469 "/>
<path style=" stroke:none;fill-rule:nonzero;fill:rgb(94.901961%,94.901961%,94.901961%);fill-opacity:1;" d="M 638.03125 377.050781 L 566.332031 466.074219 L 343.394531 286.367188 C 317.996094 265.890625 313.410156 229.261719 333.175781 204.722656 C 352.945312 180.179688 389.691406 176.871094 415.09375 197.34375 Z M 638.03125 377.050781 "/>
<path style=" stroke:none;fill-rule:nonzero;fill:rgb(80%,80%,80%);fill-opacity:1;" d="M 572.359375 469.800781 C 570.835938 471.691406 568.070312 471.988281 566.179688 470.464844 L 337.21875 285.902344 C 311.324219 265.03125 307.246094 227.105469 328.109375 201.199219 C 348.976562 175.296875 386.882812 171.214844 412.777344 192.089844 L 641.738281 376.652344 C 643.628906 378.175781 643.929688 380.945312 642.402344 382.835938 C 640.878906 384.726562 638.113281 385.027344 636.222656 383.5 L 407.261719 198.9375 C 385.148438 181.097656 352.761719 184.574219 334.941406 206.707031 C 317.117188 228.835938 320.605469 261.234375 342.734375 279.054688 L 571.695312 463.617188 C 573.582031 465.144531 573.878906 467.910156 572.359375 469.800781 Z M 572.359375 469.800781 "/>
<path style=" stroke:none;fill-rule:nonzero;fill:rgb(80%,80%,80%);fill-opacity:1;" d="M 621.484375 397.59375 L 381.914062 204.480469 C 381.535156 204.175781 381.476562 203.621094 381.78125 203.242188 C 382.085938 202.863281 382.640625 202.804688 383.015625 203.109375 L 622.585938 396.226562 C 622.832031 396.421875 622.953125 396.734375 622.90625 397.046875 C 622.855469 397.355469 622.644531 397.617188 622.351562 397.730469 C 622.058594 397.84375 621.726562 397.792969 621.484375 397.59375 Z M 621.484375 397.59375 "/>
<path style=" stroke:none;fill-rule:nonzero;fill:rgb(80%,80%,80%);fill-opacity:1;" d="M 608.246094 414.03125 L 368.675781 220.914062 C 368.300781 220.609375 368.242188 220.054688 368.546875 219.679688 C 368.847656 219.300781 369.402344 219.242188 369.78125 219.542969 L 609.351562 412.660156 C 609.59375 412.855469 609.714844 413.167969 609.667969 413.480469 C 609.621094 413.792969 609.410156 414.050781 609.117188 414.164062 C 608.824219 414.277344 608.492188 414.226562 608.246094 414.03125 Z M 608.246094 414.03125 "/>
<path style=" stroke:none;fill-rule:nonzero;fill:rgb(80%,80%,80%);fill-opacity:1;" d="M 595.011719 430.464844 L 355.441406 237.347656 C 355.0625 237.042969 355.003906 236.492188 355.308594 236.113281 C 355.613281 235.734375 356.164062 235.675781 356.542969 235.980469 L 596.113281 429.09375 C 596.492188 429.398438 596.550781 429.953125 596.246094 430.332031 C 595.941406 430.710938 595.386719 430.769531 595.011719 430.464844 Z M 595.011719 430.464844 "/>
<path style=" stroke:none;fill-rule:nonzero;fill:rgb(80%,80%,80%);fill-opacity:1;" d="M 581.773438 446.898438 L 342.203125 253.785156 C 341.828125 253.480469 341.765625 252.925781 342.070312 252.546875 C 342.375 252.167969 342.929688 252.109375 343.308594 252.414062 L 582.878906 445.527344 C 583.121094 445.726562 583.242188 446.039062 583.195312 446.351562 C 583.148438 446.660156 582.9375 446.921875 582.644531 447.035156 C 582.351562 447.148438 582.019531 447.097656 581.773438 446.898438 Z M 581.773438 446.898438 "/>
<path style=" stroke:none;fill-rule:nonzero;fill:rgb(80%,80%,80%);fill-opacity:1;" d="M 653.121094 474.25 L 0.878906 474.25 C 0.394531 474.25 0 473.859375 0 473.371094 C 0 472.886719 0.394531 472.492188 0.878906 472.492188 L 653.121094 472.492188 C 653.605469 472.492188 654 472.886719 654 473.371094 C 654 473.859375 653.605469 474.25 653.121094 474.25 Z M 653.121094 474.25 "/>
<path style=" stroke:none;fill-rule:nonzero;fill:rgb(100%,72.156863%,72.156863%);fill-opacity:1;" d="M 297.183594 343.515625 L 287.136719 343.515625 L 282.355469 304.734375 L 297.1875 304.738281 Z M 297.183594 343.515625 "/>
<path style=" stroke:none;fill-rule:nonzero;fill:rgb(18.431373%,18.039216%,25.490196%);fill-opacity:1;" d="M 279.957031 340.640625 L 299.335938 340.640625 L 299.335938 352.851562 L 267.753906 352.851562 C 267.753906 346.109375 273.21875 340.640625 279.957031 340.640625 Z M 279.957031 340.640625 "/>
<path style=" stroke:none;fill-rule:nonzero;fill:rgb(100%,72.156863%,72.156863%);fill-opacity:1;" d="M 194.515625 343.515625 L 184.46875 343.515625 L 179.6875 304.734375 L 194.519531 304.738281 Z M 194.515625 343.515625 "/>
<path style=" stroke:none;fill-rule:nonzero;fill:rgb(18.431373%,18.039216%,25.490196%);fill-opacity:1;" d="M 177.289062 340.640625 L 196.671875 340.640625 L 196.671875 352.851562 L 165.085938 352.851562 C 165.085938 346.109375 170.550781 340.640625 177.289062 340.640625 Z M 177.289062 340.640625 "/>
<path style=" stroke:none;fill-rule:nonzero;fill:rgb(18.431373%,18.039216%,25.490196%);fill-opacity:1;" d="M 228.082031 55.871094 L 228.082031 51.472656 C 228.082031 35.8125 240.777344 23.113281 256.433594 23.113281 C 272.089844 23.113281 284.78125 35.8125 284.78125 51.472656 L 284.78125 55.871094 C 284.78125 67.164062 275.628906 76.316406 264.34375 76.316406 L 248.519531 76.316406 C 237.234375 76.316406 228.082031 67.164062 228.082031 55.871094 Z M 228.082031 55.871094 "/>
<path style=" stroke:none;fill-rule:nonzero;fill:rgb(100%,72.156863%,72.156863%);fill-opacity:1;" d="M 278.023438 56.230469 C 278.023438 68.160156 268.355469 77.832031 256.433594 77.832031 C 244.507812 77.832031 234.84375 68.160156 234.84375 56.230469 C 234.84375 44.300781 244.507812 34.632812 256.433594 34.632812 C 268.355469 34.632812 278.023438 44.300781 278.023438 56.230469 Z M 278.023438 56.230469 "/>
<path style=" stroke:none;fill-rule:nonzero;fill:rgb(100%,72.156863%,72.156863%);fill-opacity:1;" d="M 138.996094 130.464844 C 140.769531 128.789062 143.195312 127.984375 145.617188 128.269531 C 148.039062 128.554688 150.210938 129.898438 151.550781 131.941406 L 170.058594 128.4375 L 174.929688 139.171875 L 148.722656 143.75 C 145.066406 145.816406 140.441406 144.816406 137.960938 141.429688 C 135.480469 138.039062 135.925781 133.328125 138.996094 130.464844 Z M 138.996094 130.464844 "/>
<path style=" stroke:none;fill-rule:nonzero;fill:rgb(80%,80%,80%);fill-opacity:1;" d="M 239.601562 91.433594 L 239.84375 91.800781 L 209.492188 111.800781 L 158.28125 128.160156 C 156.882812 128.609375 155.996094 129.988281 156.160156 131.449219 L 157.277344 141.074219 C 157.378906 141.9375 157.835938 142.714844 158.542969 143.222656 C 159.246094 143.726562 160.132812 143.910156 160.980469 143.730469 L 209.175781 133.394531 C 211.507812 132.898438 213.714844 131.925781 215.65625 130.539062 L 249.753906 106.269531 C 252.265625 104.472656 253.652344 101.484375 253.40625 98.402344 C 253.152344 95.316406 251.289062 92.589844 248.503906 91.234375 C 245.71875 89.878906 242.425781 90.09375 239.84375 91.800781 Z M 239.601562 91.433594 "/>
<path style=" stroke:none;fill-rule:nonzero;fill:rgb(18.431373%,18.039216%,25.490196%);fill-opacity:1;" d="M 287.316406 332.511719 C 285.738281 332.511719 284.3125 331.578125 283.675781 330.136719 L 237.605469 216.25 C 237.386719 215.746094 236.875 215.429688 236.324219 215.460938 C 235.773438 215.492188 235.300781 215.863281 235.136719 216.390625 L 197.550781 327.261719 C 197.230469 328.304688 196.496094 329.167969 195.515625 329.648438 C 194.539062 330.128906 193.402344 330.1875 192.382812 329.804688 L 179.777344 325.074219 C 178.382812 324.554688 177.398438 323.296875 177.230469 321.816406 C 171.5625 272.402344 221.007812 147.667969 221.507812 146.414062 L 221.648438 146.066406 L 266.722656 156.042969 L 266.816406 156.144531 C 284.796875 175.769531 299.578125 299.558594 302.359375 324.175781 C 302.574219 326.007812 301.488281 327.742188 299.746094 328.351562 L 288.621094 332.285156 C 288.203125 332.433594 287.761719 332.511719 287.316406 332.511719 Z M 287.316406 332.511719 "/>
<path style=" stroke:none;fill-rule:nonzero;fill:rgb(80%,80%,80%);fill-opacity:1;" d="M 248.476562 160.058594 C 237.558594 160.058594 225.382812 157.878906 221.632812 148.886719 L 221.546875 148.679688 L 221.664062 148.488281 C 224.621094 143.632812 228.53125 135.351562 226.429688 133.796875 C 222.292969 130.734375 220.28125 125.695312 220.460938 118.824219 C 220.847656 103.902344 231.011719 90.65625 245.746094 85.863281 C 249.859375 84.542969 254.046875 83.464844 258.285156 82.632812 C 264.539062 81.371094 271.035156 82.972656 275.980469 87.003906 C 280.992188 91.0625 283.925781 97.148438 283.976562 103.597656 C 284.132812 119.542969 281.679688 141.75 269.113281 156.996094 C 268.523438 157.703125 267.703125 158.179688 266.796875 158.34375 C 260.75 159.4375 254.621094 160.011719 248.476562 160.058594 Z M 248.476562 160.058594 "/>
<path style=" stroke:none;fill-rule:nonzero;fill:rgb(100%,72.156863%,72.156863%);fill-opacity:1;" d="M 244.414062 159.460938 C 245.652344 155.019531 250.230469 152.40625 254.683594 153.597656 C 255.117188 153.722656 255.542969 153.878906 255.953125 154.070312 L 270.007812 141.277344 L 279.78125 147.863281 L 259.683594 165.65625 C 257.816406 169.023438 253.898438 170.6875 250.179688 169.6875 C 248.050781 169.105469 246.246094 167.699219 245.164062 165.777344 C 244.082031 163.855469 243.8125 161.582031 244.414062 159.460938 Z M 244.414062 159.460938 "/>
<path style=" stroke:none;fill-rule:nonzero;fill:rgb(80%,80%,80%);fill-opacity:1;" d="M 267.78125 159.621094 C 266.871094 159.621094 265.984375 159.308594 265.28125 158.730469 L 259.738281 154.199219 C 258.800781 153.433594 258.265625 152.28125 258.285156 151.074219 C 258.304688 149.863281 258.875 148.730469 259.835938 147.996094 L 283.078125 130.160156 C 283.652344 129.71875 283.761719 128.898438 283.328125 128.320312 L 268.980469 109.34375 C 265.539062 104.808594 265.867188 98.449219 269.761719 94.292969 C 273.875 89.847656 280.714844 89.300781 285.484375 93.035156 L 285.574219 93.132812 L 300.554688 114.589844 C 303.839844 117.167969 305.730469 121.128906 305.667969 125.304688 C 305.605469 129.476562 303.597656 133.382812 300.238281 135.859375 L 270.136719 158.847656 C 269.453125 159.351562 268.628906 159.621094 267.78125 159.621094 Z M 267.78125 159.621094 "/>
<path style=" stroke:none;fill-rule:nonzero;fill:rgb(18.431373%,18.039216%,25.490196%);fill-opacity:1;" d="M 237.308594 50.15625 L 237.308594 39.4375 L 256.433594 31.085938 L 274.667969 39.4375 L 274.667969 50.15625 C 274.667969 51.125 273.878906 51.914062 272.910156 51.914062 L 239.066406 51.914062 C 238.09375 51.914062 237.308594 51.125 237.308594 50.15625 Z M 237.308594 50.15625 "/>
<path style=" stroke:none;fill-rule:nonzero;fill:rgb(18.431373%,18.039216%,25.490196%);fill-opacity:1;" d="M 255.554688 24.535156 C 252.742188 15.53125 258.648438 5.210938 267.378906 1.648438 C 276.109375 -1.914062 286.550781 0.574219 293.917969 6.464844 C 301.285156 12.351562 305.855469 21.171875 308.277344 30.289062 C 310.699219 39.40625 311.160156 48.910156 311.605469 58.332031 C 322.332031 60.304688 329.628906 73.03125 325.914062 83.289062 C 322.199219 93.546875 308.445312 98.644531 298.945312 93.28125 C 289.449219 87.921875 286.695312 73.507812 293.550781 65.023438 C 300.226562 56.761719 300.4375 45.023438 294.066406 36.527344 C 287.695312 28.03125 276.371094 24.949219 266.578125 29.046875 C 261.289062 31.257812 254.65625 25.511719 255.554688 24.535156 Z M 255.554688 24.535156 "/>
<path style=" stroke:none;fill-rule:nonzero;fill:rgb(0.392157%,76.470588%,4.705882%);fill-opacity:1;" d="M 135.03125 88.894531 C 122.191406 88.808594 109.507812 86.03125 97.804688 80.738281 C 96.382812 80.101562 95.46875 78.6875 95.476562 77.128906 L 95.476562 45.101562 C 95.476562 42.917969 97.246094 41.144531 99.429688 41.144531 L 170.632812 41.144531 C 172.816406 41.144531 174.585938 42.917969 174.589844 45.101562 L 174.589844 77.128906 C 174.59375 78.6875 173.679688 80.101562 172.257812 80.738281 C 160.554688 86.03125 147.875 88.808594 135.03125 88.894531 Z M 135.03125 88.894531 "/>
<path style=" stroke:none;fill-rule:nonzero;fill:rgb(0.392157%,76.470588%,4.705882%);fill-opacity:1;" d="M 135.023438 62.949219 C 134.496094 62.949219 133.972656 62.84375 133.484375 62.636719 L 77.023438 38.808594 C 75.535156 38.179688 74.574219 36.707031 74.605469 35.089844 C 74.636719 33.472656 75.644531 32.035156 77.15625 31.460938 L 133.621094 10.03125 C 134.53125 9.683594 135.535156 9.6875 136.441406 10.039062 L 192.148438 31.46875 C 193.652344 32.046875 194.65625 33.476562 194.683594 35.089844 C 194.714844 36.699219 193.765625 38.167969 192.285156 38.800781 L 136.578125 62.632812 C 136.085938 62.839844 135.558594 62.949219 135.023438 62.949219 Z M 135.023438 62.949219 "/>
<path style=" stroke:none;fill-rule:nonzero;fill:rgb(24.705882%,23.921569%,33.72549%);fill-opacity:1;" d="M 107.34375 77.640625 C 107.34375 80.554688 104.980469 82.914062 102.066406 82.914062 C 99.15625 82.914062 96.792969 80.554688 96.792969 77.640625 C 96.792969 74.726562 99.15625 72.363281 102.066406 72.363281 C 104.980469 72.363281 107.34375 74.726562 107.34375 77.640625 Z M 107.34375 77.640625 "/>
<use xlink:href="#surface5" mask="url(#mask0)"/>
<path style=" stroke:none;fill-rule:nonzero;fill:rgb(24.705882%,23.921569%,33.72549%);fill-opacity:1;" d="M 102.511719 77.617188 C 102.996094 77.617188 103.390625 77.226562 103.390625 76.738281 L 103.390625 47.3125 L 132.382812 36.746094 C 132.867188 36.753906 133.265625 36.367188 133.273438 35.878906 C 133.28125 35.394531 132.894531 34.996094 132.40625 34.988281 L 103.417969 45.554688 C 102.945312 45.542969 102.488281 45.726562 102.15625 46.058594 C 101.820312 46.390625 101.628906 46.839844 101.632812 47.3125 L 101.632812 76.738281 C 101.632812 77.226562 102.027344 77.617188 102.511719 77.617188 Z M 102.511719 77.617188 "/>
</g>
</svg>
