<?xml version="1.0" encoding="UTF-8"?>
<svg xmlns="http://www.w3.org/2000/svg" xmlns:xlink="http://www.w3.org/1999/xlink" width="674px" height="474px" viewBox="0 0 673 474" version="1.1">
<defs>
<filter id="alpha" filterUnits="objectBoundingBox" x="0%" y="0%" width="100%" height="100%">
  <feColorMatrix type="matrix" in="SourceGraphic" values="0 0 0 0 1 0 0 0 0 1 0 0 0 0 1 0 0 0 1 0"/>
</filter>
<mask id="mask0">
  <g filter="url(#alpha)">
<rect x="0" y="0" width="673" height="474" style="fill:rgb(0%,0%,0%);fill-opacity:0.101961;stroke:none;"/>
  </g>
</mask>
<clipPath id="clip1">
  <rect x="0" y="0" width="673" height="474"/>
</clipPath>
<g id="surface5" clip-path="url(#clip1)">
<path style=" stroke:none;fill-rule:nonzero;fill:rgb(0%,0%,0%);fill-opacity:1;" d="M 446.398438 240.265625 C 446.398438 240.265625 442.703125 264.296875 441.605469 265.507812 C 440.507812 266.71875 449.277344 295.011719 449.277344 295.011719 L 477.402344 278.59375 C 477.402344 278.59375 482.875 248.222656 484.675781 247.210938 C 486.476562 246.195312 446.398438 240.265625 446.398438 240.265625 Z M 446.398438 240.265625 "/>
</g>
</defs>
<g id="surface1">
<path style=" stroke:none;fill-rule:nonzero;fill:rgb(18.431373%,18.039216%,25.490196%);fill-opacity:1;" d="M 531.824219 472.945312 C 528.476562 472.945312 525.148438 472.484375 521.925781 471.578125 L 388.183594 435.742188 L 388.578125 434.335938 L 522.320312 470.167969 C 525.414062 471.039062 528.609375 471.480469 531.824219 471.484375 C 547.5625 471.484375 561.523438 462.355469 565.769531 447.1875 L 660.972656 107.328125 L 661.179688 106.589844 C 666.386719 87.839844 655.464844 68.40625 636.753906 63.128906 L 421.777344 2.785156 C 403.039062 -2.449219 383.605469 8.484375 378.328125 27.230469 L 370.859375 53.898438 L 369.453125 53.503906 L 376.921875 26.832031 C 382.414062 7.3125 402.660156 -4.078125 422.171875 1.375 L 637.148438 61.71875 C 656.375 67.144531 667.753906 86.949219 662.769531 106.3125 L 662.777344 106.3125 L 662.578125 107.019531 L 567.179688 447.582031 C 562.753906 463.378906 548.214844 472.945312 531.824219 472.945312 Z M 531.824219 472.945312 "/>
<path style=" stroke:none;fill-rule:nonzero;fill:rgb(0.392157%,76.470588%,4.705882%);fill-opacity:1;" d="M 379.21875 61.492188 L 381.667969 62.179688 L 389.199219 64.292969 L 389.988281 61.472656 L 387.167969 60.679688 L 389.644531 51.835938 L 395.601562 46.660156 L 397.1875 63.496094 L 392.800781 62.261719 L 392.011719 65.085938 L 403.265625 68.246094 L 404.054688 65.421875 L 401.667969 64.753906 L 399.371094 43.382812 L 411.0625 33.207031 L 414.34375 34.128906 L 415.132812 31.304688 L 403.875 28.144531 L 403.082031 30.96875 L 406.796875 32.007812 L 391.925781 43.703125 L 396.046875 28.992188 L 398.867188 29.78125 L 399.65625 26.960938 L 388.394531 23.800781 L 387.605469 26.621094 L 391.832031 27.808594 L 382.953125 59.496094 L 378.730469 58.3125 L 378.617188 58.691406 L 378.167969 60.328125 Z M 379.21875 61.492188 "/>
<path style=" stroke:none;fill-rule:nonzero;fill:rgb(0.392157%,76.470588%,4.705882%);fill-opacity:1;" d="M 397.332031 88.191406 C 394.519531 89.410156 391.777344 90.78125 389.113281 92.296875 C 388.621094 92.574219 388.132812 92.859375 387.652344 93.144531 L 387.652344 84.09375 C 387.65625 80.839844 387.195312 77.601562 386.285156 74.476562 C 386.707031 74.214844 387.140625 73.929688 387.5625 73.644531 C 387.949219 73.386719 388.34375 73.125 388.730469 72.859375 C 391.136719 78.21875 394.015625 83.347656 397.332031 88.191406 Z M 397.332031 88.191406 "/>
<path style=" stroke:none;fill-rule:nonzero;fill:rgb(0.392157%,76.470588%,4.705882%);fill-opacity:1;" d="M 531.257812 447.550781 L 527.980469 446.632812 L 527.191406 449.449219 L 538.449219 452.609375 L 539.238281 449.789062 L 535.53125 448.75 L 550.398438 437.050781 L 546.273438 451.765625 L 543.460938 450.976562 L 542.671875 453.792969 L 553.929688 456.953125 L 554.71875 454.136719 L 550.496094 452.949219 L 559.375 421.257812 L 563.597656 422.441406 L 564.386719 419.625 L 553.128906 416.464844 L 552.339844 419.28125 L 555.152344 420.070312 L 552.675781 428.917969 L 546.722656 434.097656 L 545.140625 417.261719 L 549.523438 418.492188 L 550.3125 415.675781 L 539.054688 412.515625 L 538.265625 415.332031 L 540.660156 416.003906 L 542.953125 437.375 Z M 531.257812 447.550781 "/>
<path style=" stroke:none;fill-rule:nonzero;fill:rgb(0.392157%,76.470588%,4.705882%);fill-opacity:1;" d="M 544.988281 392.5625 C 550.257812 390.300781 555.269531 387.484375 559.9375 384.152344 C 562.441406 389.460938 565.316406 394.585938 568.546875 399.484375 C 563.3125 401.816406 558.304688 404.632812 553.59375 407.894531 C 551.1875 402.539062 548.304688 397.410156 544.988281 392.5625 Z M 544.988281 392.5625 "/>
<path style=" stroke:none;fill-rule:nonzero;fill:rgb(100%,72.156863%,72.156863%);fill-opacity:1;" d="M 446.398438 240.265625 C 446.398438 240.265625 442.703125 264.296875 441.605469 265.507812 C 440.507812 266.71875 449.277344 295.011719 449.277344 295.011719 L 477.402344 278.59375 C 477.402344 278.59375 482.875 248.222656 484.675781 247.210938 C 486.476562 246.195312 446.398438 240.265625 446.398438 240.265625 Z M 446.398438 240.265625 "/>
<use xlink:href="#surface5" mask="url(#mask0)"/>
<path style=" stroke:none;fill-rule:nonzero;fill:rgb(100%,72.156863%,72.156863%);fill-opacity:1;" d="M 495.925781 235.734375 C 495.925781 251.085938 483.492188 263.53125 468.160156 263.53125 C 452.824219 263.53125 440.390625 251.085938 440.390625 235.734375 C 440.390625 220.382812 452.824219 207.941406 468.160156 207.941406 C 483.492188 207.941406 495.925781 220.382812 495.925781 235.734375 Z M 495.925781 235.734375 "/>
<path style=" stroke:none;fill-rule:nonzero;fill:rgb(100%,100%,100%);fill-opacity:1;" d="M 456.125 278.699219 L 453.703125 276.5 L 442.828125 261.003906 C 442.828125 261.003906 441.578125 260.183594 440.394531 264.40625 L 439.210938 268.632812 L 428.992188 272.601562 L 406.382812 369.574219 L 466.890625 386.558594 L 491.808594 289.476562 L 480.105469 277.074219 L 478.808594 271.089844 L 460.738281 278.476562 Z M 456.125 278.699219 "/>
<path style=" stroke:none;fill-rule:nonzero;fill:rgb(18.431373%,18.039216%,25.490196%);fill-opacity:1;" d="M 387.652344 379.511719 L 389.113281 379.921875 L 483.347656 406.371094 L 514.855469 302.027344 C 514.855469 302.027344 507.402344 296.128906 501.570312 295.253906 C 501.570312 295.253906 491.78125 284.148438 487.5625 282.964844 C 483.339844 281.777344 478.671875 271.355469 478.671875 271.355469 C 478.671875 271.355469 473.738281 288.960938 465.261719 300.253906 C 456.785156 311.550781 442.023438 350.714844 442.023438 350.714844 L 437.859375 278.890625 L 442.535156 260.828125 C 439.816406 262.441406 437.339844 264.433594 435.183594 266.746094 C 431.890625 270.375 423.476562 273.328125 423.476562 273.328125 C 423.476562 273.328125 401.324219 279.269531 397.40625 279.695312 C 393.496094 280.109375 391.691406 281.128906 391.691406 281.128906 L 389.113281 298.894531 L 387.652344 308.960938 Z M 387.652344 379.511719 "/>
<path style=" stroke:none;fill-rule:nonzero;fill:rgb(18.431373%,18.039216%,25.490196%);fill-opacity:1;" d="M 400.511719 339.0625 C 399.636719 344.890625 390.617188 368.949219 390.617188 368.949219 L 389.113281 370.464844 L 387.652344 371.933594 L 387.652344 282.832031 C 388.058594 282.390625 388.558594 282.042969 389.113281 281.816406 C 389.9375 281.472656 390.804688 281.242188 391.691406 281.128906 L 394.511719 281.917969 C 394.511719 281.917969 401.386719 333.222656 400.511719 339.0625 Z M 400.511719 339.0625 "/>
<path style=" stroke:none;fill-rule:nonzero;fill:rgb(100%,72.156863%,72.156863%);fill-opacity:1;" d="M 464.699219 369.992188 C 464.699219 369.992188 478.53125 345.003906 489 350.980469 C 499.46875 356.960938 482.683594 373.519531 482.683594 373.519531 Z M 464.699219 369.992188 "/>
<path style=" stroke:none;fill-rule:nonzero;fill:rgb(100%,72.156863%,72.156863%);fill-opacity:1;" d="M 421.894531 360.253906 C 421.894531 360.253906 395.355469 352.046875 394.761719 354.15625 C 394.171875 356.269531 386.90625 368.664062 389.015625 369.257812 C 391.125 369.851562 407.503906 373.6875 407.308594 374.394531 C 407.109375 375.097656 415.160156 378.875 415.160156 378.875 Z M 421.894531 360.253906 "/>
<path style=" stroke:none;fill-rule:nonzero;fill:rgb(0.392157%,76.470588%,4.705882%);fill-opacity:1;" d="M 473.632812 281.246094 L 456.742188 281.910156 L 453.222656 280.925781 L 439.140625 271.566406 L 434.476562 285.539062 L 452.238281 284.445312 L 455.753906 285.433594 L 470.359375 295.609375 Z M 473.632812 281.246094 "/>
<path style=" stroke:none;fill-rule:nonzero;fill:rgb(18.431373%,18.039216%,25.490196%);fill-opacity:1;" d="M 428.242188 386.351562 L 425.648438 391.882812 L 388.382812 381.640625 L 387.652344 379.511719 L 387.652344 367.785156 L 389.113281 368.355469 L 390.617188 368.949219 Z M 428.242188 386.351562 "/>
<path style=" stroke:none;fill-rule:nonzero;fill:rgb(100%,100%,100%);fill-opacity:1;" d="M 429.632812 362.425781 C 429.632812 362.425781 420.882812 358.449219 420.683594 359.15625 C 420.488281 359.859375 408.742188 380.113281 411.554688 380.902344 C 414.371094 381.691406 424.332031 386.769531 424.332031 386.769531 Z M 429.632812 362.425781 "/>
<path style=" stroke:none;fill-rule:nonzero;fill:rgb(18.431373%,18.039216%,25.490196%);fill-opacity:1;" d="M 509.929688 300.640625 L 514.855469 302.023438 C 514.855469 302.023438 517.671875 302.8125 517.894531 307.433594 C 518.117188 312.054688 521.9375 333.640625 520.136719 334.652344 C 518.332031 335.664062 517.828125 334.765625 518.839844 336.566406 C 519.851562 338.371094 520.753906 337.863281 519.65625 339.074219 C 518.558594 340.285156 516.035156 379.082031 507.871094 391.984375 C 499.703125 404.886719 497.222656 411.027344 494.410156 410.238281 L 421.460938 389.761719 C 421.460938 389.761719 424.707031 361.042969 427.71875 361.128906 C 430.730469 361.214844 480.066406 372.027344 480.066406 372.027344 C 480.066406 372.027344 499.179688 298.382812 509.929688 300.640625 Z M 509.929688 300.640625 "/>
<path style=" stroke:none;fill-rule:nonzero;fill:rgb(18.431373%,18.039216%,25.490196%);fill-opacity:1;" d="M 451.796875 205.269531 L 447.242188 202 C 447.242188 202 460.824219 194.359375 475.324219 199.425781 L 472.335938 194.105469 C 472.335938 194.105469 483.515625 193.257812 490.023438 205.542969 C 493.445312 212 497.378906 219.566406 498.984375 227.296875 L 504.417969 228.820312 L 500.878906 232.722656 L 507.542969 239.492188 L 499.625 236.390625 C 499.300781 240.523438 497.898438 244.503906 495.5625 247.929688 L 492.292969 252.492188 C 492.292969 252.492188 489.054688 235.644531 489.570312 233.800781 L 488.277344 238.417969 C 488.277344 238.417969 484.367188 232.835938 485.144531 230.066406 L 481.472656 232.523438 L 481.511719 227.054688 L 463.023438 227.34375 L 466.957031 223.964844 L 455.960938 222.375 L 461.535156 218.460938 C 461.535156 218.460938 447.863281 221.097656 445.976562 226.042969 C 444.09375 230.992188 436.289062 235.773438 436.289062 235.773438 L 434.816406 230.378906 C 434.816406 230.378906 436.484375 208.441406 451.796875 205.269531 Z M 451.796875 205.269531 "/>
<path style=" stroke:none;fill-rule:nonzero;fill:rgb(0.392157%,76.470588%,4.705882%);fill-opacity:1;" d="M 442.25 215.269531 L 442.46875 214.324219 C 444.582031 205.121094 428.335938 188.007812 428.171875 187.835938 L 427.886719 187.535156 L 427.996094 187.132812 C 428.320312 185.984375 429.609375 184.964844 440.902344 187.417969 C 445.300781 188.371094 449.683594 189.535156 451.519531 190.03125 C 451.316406 184.777344 444.808594 177.816406 444.738281 177.742188 L 443.921875 176.875 L 445.066406 176.539062 C 452.566406 174.339844 461.347656 181.636719 464.152344 184.222656 L 468.84375 167.480469 L 478.125 181.203125 C 483.820312 172.664062 492.0625 173.011719 492.421875 173.03125 L 493.578125 173.09375 L 493.023438 174.113281 C 489.121094 181.261719 488.414062 185.957031 488.375 188.273438 C 498.761719 175.921875 508.125 176.996094 508.53125 177.050781 L 509.949219 177.238281 L 508.96875 178.277344 C 495.367188 192.664062 493.765625 211.636719 493.75 211.828125 L 493.703125 212.46875 Z M 429.792969 187.425781 C 432.664062 190.542969 445.082031 204.601562 444.054688 213.707031 L 492.363281 211.074219 C 492.757812 207.691406 495.210938 191.582031 506.761719 178.523438 C 503.613281 178.804688 496.1875 180.601562 488.363281 190.609375 L 487.46875 191.757812 L 487.082031 190.351562 C 487.023438 190.128906 485.714844 184.984375 491.140625 174.535156 C 488.652344 174.769531 482.863281 176.074219 478.769531 182.914062 L 478.179688 183.898438 L 469.398438 170.914062 L 464.890625 187.003906 L 464.007812 186.109375 C 463.90625 186.007812 454.484375 176.5625 446.648438 177.6875 C 448.660156 180.035156 453.472656 186.207031 452.945312 191.0625 L 452.851562 191.921875 L 452.019531 191.6875 C 442.792969 189.097656 432.253906 186.886719 429.792969 187.425781 Z M 429.792969 187.425781 "/>
<path style=" stroke:none;fill-rule:nonzero;fill:rgb(0.392157%,76.470588%,4.705882%);fill-opacity:1;" d="M 512.171875 173.195312 C 510.777344 172.804688 509.964844 171.355469 510.355469 169.960938 C 510.746094 168.566406 512.195312 167.753906 513.589844 168.144531 C 514.980469 168.535156 515.796875 169.984375 515.40625 171.378906 C 515.011719 172.773438 513.566406 173.585938 512.171875 173.195312 Z M 513.195312 169.554688 C 512.578125 169.378906 511.9375 169.738281 511.765625 170.355469 C 511.589844 170.972656 511.949219 171.613281 512.566406 171.789062 C 513.183594 171.960938 513.824219 171.601562 513.996094 170.984375 C 514.167969 170.367188 513.808594 169.726562 513.195312 169.554688 Z M 513.195312 169.554688 "/>
<path style=" stroke:none;fill-rule:nonzero;fill:rgb(0.392157%,76.470588%,4.705882%);fill-opacity:1;" d="M 493.972656 168.085938 C 492.578125 167.695312 491.765625 166.25 492.15625 164.851562 C 492.546875 163.457031 493.992188 162.644531 495.386719 163.035156 C 496.78125 163.425781 497.59375 164.875 497.203125 166.269531 C 496.8125 167.664062 495.363281 168.476562 493.972656 168.085938 Z M 494.992188 164.445312 C 494.375 164.269531 493.734375 164.628906 493.5625 165.246094 C 493.390625 165.863281 493.75 166.503906 494.367188 166.679688 C 494.984375 166.851562 495.621094 166.492188 495.796875 165.875 C 495.96875 165.257812 495.609375 164.617188 494.992188 164.445312 Z M 494.992188 164.445312 "/>
<path style=" stroke:none;fill-rule:nonzero;fill:rgb(0.392157%,76.470588%,4.705882%);fill-opacity:1;" d="M 466.304688 165.234375 C 464.910156 164.84375 464.097656 163.394531 464.488281 162 C 464.878906 160.605469 466.324219 159.789062 467.71875 160.183594 C 469.113281 160.574219 469.925781 162.019531 469.535156 163.417969 C 469.140625 164.8125 467.695312 165.625 466.304688 165.234375 Z M 467.324219 161.589844 C 466.707031 161.417969 466.066406 161.777344 465.894531 162.394531 C 465.722656 163.011719 466.082031 163.652344 466.699219 163.824219 C 467.316406 164 467.953125 163.640625 468.128906 163.023438 C 468.300781 162.40625 467.941406 161.765625 467.324219 161.589844 Z M 467.324219 161.589844 "/>
<path style=" stroke:none;fill-rule:nonzero;fill:rgb(0.392157%,76.470588%,4.705882%);fill-opacity:1;" d="M 422.132812 186.246094 C 420.738281 185.855469 419.925781 184.40625 420.316406 183.011719 C 420.707031 181.617188 422.15625 180.800781 423.550781 181.191406 C 424.941406 181.585938 425.753906 183.03125 425.363281 184.429688 C 424.972656 185.820312 423.527344 186.636719 422.132812 186.246094 Z M 423.152344 182.601562 C 422.539062 182.429688 421.898438 182.789062 421.726562 183.40625 C 421.550781 184.023438 421.910156 184.664062 422.527344 184.835938 C 423.144531 185.011719 423.785156 184.648438 423.957031 184.03125 C 424.128906 183.414062 423.769531 182.777344 423.152344 182.601562 Z M 423.152344 182.601562 "/>
<path style=" stroke:none;fill-rule:nonzero;fill:rgb(0.392157%,76.470588%,4.705882%);fill-opacity:1;" d="M 439.214844 174.335938 C 437.820312 173.945312 437.007812 172.496094 437.398438 171.101562 C 437.789062 169.703125 439.234375 168.890625 440.628906 169.28125 C 442.023438 169.671875 442.835938 171.121094 442.445312 172.515625 C 442.050781 173.910156 440.605469 174.722656 439.214844 174.335938 Z M 440.234375 170.691406 C 439.617188 170.519531 438.976562 170.878906 438.804688 171.496094 C 438.632812 172.113281 438.992188 172.753906 439.609375 172.925781 C 440.222656 173.097656 440.863281 172.738281 441.039062 172.121094 C 441.210938 171.503906 440.851562 170.863281 440.234375 170.691406 Z M 440.234375 170.691406 "/>
<path style=" stroke:none;fill-rule:nonzero;fill:rgb(18.431373%,18.039216%,25.490196%);fill-opacity:1;" d="M 526.324219 420.714844 L 525.621094 420.519531 L 387.875 381.851562 L 388.269531 380.445312 L 525.308594 418.914062 L 611.925781 109.71875 L 418.789062 55.503906 L 389.332031 160.667969 L 387.921875 160.269531 L 417.777344 53.699219 L 418.480469 53.898438 L 613.726562 108.703125 L 613.527344 109.410156 Z M 526.324219 420.714844 "/>
<path style=" stroke:none;fill-rule:nonzero;fill:rgb(18.431373%,18.039216%,25.490196%);fill-opacity:1;" d="M 30.421875 449.023438 C 39.503906 465.882812 58.78125 473.121094 58.78125 473.121094 C 58.78125 473.121094 63.328125 453.023438 54.25 436.160156 C 45.167969 419.300781 25.890625 412.0625 25.890625 412.0625 C 25.890625 412.0625 21.339844 432.160156 30.421875 449.023438 Z M 30.421875 449.023438 "/>
<path style=" stroke:none;fill-rule:nonzero;fill:rgb(0.392157%,76.470588%,4.705882%);fill-opacity:1;" d="M 36.664062 443.476562 C 53.0625 453.351562 59.375 472.964844 59.375 472.964844 C 59.375 472.964844 39.109375 476.566406 22.710938 466.691406 C 6.316406 456.816406 0 437.203125 0 437.203125 C 0 437.203125 20.269531 433.601562 36.664062 443.476562 Z M 36.664062 443.476562 "/>
<path style=" stroke:none;fill-rule:nonzero;fill:rgb(18.431373%,18.039216%,25.490196%);fill-opacity:1;" d="M 387.5625 73.644531 C 386.304688 69.496094 384.308594 65.613281 381.667969 62.179688 C 380.726562 60.953125 379.707031 59.789062 378.617188 58.691406 C 371.878906 51.898438 362.703125 48.078125 353.136719 48.085938 L 129.871094 48.085938 C 110.011719 48.105469 93.917969 64.214844 93.898438 84.09375 L 93.898438 437.796875 C 93.917969 457.675781 110.011719 473.785156 129.871094 473.808594 L 353.136719 473.808594 C 373 473.785156 389.09375 457.675781 389.113281 437.796875 L 389.113281 84.09375 C 389.117188 80.554688 388.59375 77.03125 387.5625 73.644531 Z M 387.652344 437.796875 C 387.628906 456.867188 372.191406 472.320312 353.136719 472.34375 L 129.871094 472.34375 C 110.820312 472.320312 95.382812 456.867188 95.359375 437.796875 L 95.359375 84.09375 C 95.382812 65.023438 110.820312 49.570312 129.871094 49.546875 L 353.136719 49.546875 C 362.605469 49.542969 371.660156 53.441406 378.167969 60.328125 C 378.523438 60.710938 378.875 61.097656 379.21875 61.492188 C 384.65625 67.765625 387.652344 75.789062 387.652344 84.09375 Z M 387.652344 437.796875 "/>
<path style=" stroke:none;fill-rule:nonzero;fill:rgb(0.392157%,76.470588%,4.705882%);fill-opacity:1;" d="M 129.515625 104.925781 C 129.476562 104.832031 129.425781 104.746094 129.378906 104.652344 C 131.027344 101.425781 131.859375 97.84375 131.800781 94.21875 C 131.800781 82.878906 124.722656 74.957031 114.589844 74.957031 C 104.453125 74.957031 97.375 82.878906 97.375 94.21875 C 97.375 105.554688 104.453125 113.476562 114.589844 113.476562 C 119.433594 113.574219 124.066406 111.503906 127.226562 107.828125 C 130.472656 113.082031 136.746094 113.777344 137.035156 113.804688 L 137.375 110.445312 C 137.140625 110.417969 131.570312 109.765625 129.515625 104.925781 Z M 114.589844 110.097656 C 106.441406 110.097656 100.75 103.566406 100.75 94.21875 C 100.75 84.867188 106.441406 78.335938 114.589844 78.335938 C 122.738281 78.335938 128.425781 84.867188 128.425781 94.21875 C 128.460938 96.882812 127.933594 99.527344 126.886719 101.976562 C 121.847656 98.910156 112.476562 100.742188 111.203125 101.011719 L 111.898438 104.316406 C 115.339844 103.597656 122.191406 103.015625 125.171875 104.890625 C 122.6875 108.230469 118.75 110.167969 114.589844 110.097656 Z M 114.589844 110.097656 "/>
<path style=" stroke:none;fill-rule:nonzero;fill:rgb(0.392157%,76.470588%,4.705882%);fill-opacity:1;" d="M 115.820312 121.511719 C 113.53125 119.226562 109.828125 119.226562 107.542969 121.515625 C 105.257812 123.804688 105.253906 127.511719 107.539062 129.800781 L 115.820312 138.09375 L 124.101562 129.800781 C 126.382812 127.511719 126.378906 123.804688 124.09375 121.519531 C 121.808594 119.234375 118.109375 119.230469 115.820312 121.511719 Z M 115.820312 121.511719 "/>
<path style=" stroke:none;fill-rule:nonzero;fill:rgb(0.392157%,76.470588%,4.705882%);fill-opacity:1;" d="M 353.496094 419.230469 C 353.535156 419.324219 353.585938 419.410156 353.628906 419.503906 C 351.984375 422.730469 351.152344 426.316406 351.207031 429.941406 C 351.207031 441.277344 358.289062 449.199219 368.421875 449.199219 C 378.558594 449.199219 385.636719 441.277344 385.636719 429.941406 C 385.636719 418.601562 378.558594 410.679688 368.421875 410.679688 C 363.578125 410.582031 358.945312 412.65625 355.785156 416.332031 C 352.539062 411.074219 346.265625 410.378906 345.976562 410.351562 L 345.632812 413.714844 C 345.871094 413.738281 351.4375 414.390625 353.496094 419.230469 Z M 368.421875 414.058594 C 376.570312 414.058594 382.261719 420.589844 382.261719 429.941406 C 382.261719 439.289062 376.570312 445.820312 368.421875 445.820312 C 360.273438 445.820312 354.582031 439.289062 354.582031 429.941406 C 354.550781 427.273438 355.074219 424.632812 356.125 422.179688 C 361.164062 425.246094 370.535156 423.414062 371.808594 423.144531 L 371.113281 419.839844 C 367.671875 420.5625 360.820312 421.140625 357.839844 419.269531 C 360.324219 415.925781 364.261719 413.988281 368.421875 414.058594 Z M 368.421875 414.058594 "/>
<path style=" stroke:none;fill-rule:nonzero;fill:rgb(0.392157%,76.470588%,4.705882%);fill-opacity:1;" d="M 367.191406 402.644531 C 369.476562 404.929688 373.179688 404.925781 375.464844 402.636719 C 377.75 400.351562 377.753906 396.644531 375.472656 394.355469 L 367.191406 386.066406 L 358.910156 394.355469 C 356.628906 396.644531 356.632812 400.351562 358.914062 402.636719 C 361.199219 404.925781 364.902344 404.929688 367.191406 402.644531 Z M 367.191406 402.644531 "/>
<path style=" stroke:none;fill-rule:nonzero;fill:rgb(18.431373%,18.039216%,25.490196%);fill-opacity:1;" d="M 259.515625 249.03125 C 249.566406 232.203125 229.886719 231.417969 229.886719 231.417969 C 229.886719 231.417969 210.707031 228.964844 198.402344 254.59375 C 186.9375 278.480469 171.109375 301.542969 195.855469 307.132812 L 200.324219 293.207031 L 203.09375 308.171875 C 206.617188 308.425781 210.152344 308.484375 213.679688 308.351562 C 240.183594 307.496094 265.421875 308.601562 264.609375 299.082031 C 263.527344 286.429688 269.085938 265.222656 259.515625 249.03125 Z M 259.515625 249.03125 "/>
<path style=" stroke:none;fill-rule:nonzero;fill:rgb(62.745098%,38.039216%,41.568627%);fill-opacity:1;" d="M 222.816406 306.363281 C 222.863281 308.253906 222.847656 310.253906 221.910156 311.898438 C 220.042969 315.15625 215.496094 315.644531 212.757812 318.214844 C 209.878906 320.914062 209.554688 325.300781 209.417969 329.25 C 209.273438 333.375 209.152344 337.636719 210.65625 341.484375 C 211.578125 343.601562 212.742188 345.605469 214.128906 347.453125 C 215.796875 349.863281 217.484375 352.265625 219.1875 354.652344 C 220.09375 356 221.109375 357.273438 222.214844 358.457031 C 225.265625 361.566406 229.445312 363.289062 233.617188 364.515625 C 236.316406 365.308594 239.226562 365.925781 241.902344 365.0625 C 243.675781 364.371094 245.304688 363.367188 246.722656 362.097656 C 248.710938 360.515625 250.734375 358.902344 252.175781 356.808594 C 254.421875 353.542969 255.042969 349.460938 255.511719 345.523438 C 256.886719 333.886719 257.421875 322.164062 257.113281 310.449219 C 257.171875 309.171875 256.941406 307.898438 256.445312 306.722656 C 255.058594 304.011719 251.347656 303.433594 249.390625 301.105469 C 247.71875 299.113281 247.652344 296.269531 247.664062 293.667969 L 247.703125 287.042969 C 247.761719 286.484375 247.648438 285.921875 247.378906 285.429688 C 246.890625 284.890625 246.207031 284.574219 245.480469 284.542969 C 241.367188 283.859375 237.199219 283.578125 233.03125 283.707031 C 229.652344 283.8125 223.171875 283.527344 220.25 285.410156 C 217.597656 287.121094 220.917969 291.84375 221.53125 294.496094 C 222.359375 298.398438 222.789062 302.375 222.816406 306.363281 Z M 222.816406 306.363281 "/>
<path style=" stroke:none;fill-rule:nonzero;fill:rgb(62.745098%,38.039216%,41.568627%);fill-opacity:1;" d="M 257.316406 268.210938 C 257.316406 283 245.339844 294.984375 230.570312 294.984375 C 215.796875 294.984375 203.824219 283 203.824219 268.210938 C 203.824219 253.421875 215.796875 241.4375 230.570312 241.4375 C 245.339844 241.4375 257.316406 253.421875 257.316406 268.210938 Z M 257.316406 268.210938 "/>
<path style=" stroke:none;fill-rule:nonzero;fill:rgb(100%,100%,100%);fill-opacity:1;" d="M 219.554688 334.53125 C 217.855469 332 216.453125 329.277344 215.382812 326.421875 C 214.429688 323.527344 214.175781 320.292969 215.3125 317.464844 C 212.421875 315.785156 208.496094 317.144531 206.390625 319.742188 C 204.289062 322.339844 203.644531 325.824219 203.457031 329.164062 C 203.273438 332.503906 203.46875 335.894531 202.742188 339.15625 C 201.136719 346.382812 195.175781 352.320312 194.730469 359.707031 C 194.296875 366.976562 199.273438 373.308594 201.722656 380.164062 C 203.207031 384.4375 203.828125 388.960938 203.550781 393.476562 C 203.46875 394.933594 203.378906 396.59375 204.40625 397.632812 C 204.941406 398.097656 205.574219 398.441406 206.257812 398.628906 C 218.074219 402.792969 230.839844 403.152344 243.367188 403.46875 L 264.054688 403.996094 C 265.304688 404.144531 266.570312 403.929688 267.707031 403.382812 C 269.5625 402.242188 269.808594 399.691406 269.839844 397.511719 C 270.113281 378.742188 269.316406 359.980469 268.519531 341.226562 C 268.230469 334.429688 267.9375 327.59375 266.496094 320.945312 C 266.128906 319.253906 265.527344 317.371094 263.96875 316.621094 C 262.644531 315.988281 261.078125 316.398438 259.703125 316.90625 C 253.292969 319.292969 247.75 323.566406 243.804688 329.160156 C 239.558594 335.207031 237.472656 342.460938 233.316406 348.554688 C 230.304688 352.976562 228.558594 349.121094 226.550781 345.867188 C 224.21875 342.085938 221.886719 338.308594 219.554688 334.53125 Z M 219.554688 334.53125 "/>
<path style=" stroke:none;fill-rule:nonzero;fill:rgb(18.431373%,18.039216%,25.490196%);fill-opacity:1;" d="M 216.355469 317.925781 C 215.828125 318.300781 215.308594 318.695312 214.8125 319.113281 C 212.949219 320.652344 211.28125 322.410156 209.84375 324.347656 C 207.460938 327.601562 205.566406 331.179688 204.214844 334.976562 C 201.789062 341.632812 200.738281 348.699219 199.730469 355.707031 C 199.289062 358.289062 199.050781 360.902344 199.019531 363.519531 C 199.175781 373.148438 204.859375 382.0625 204.867188 391.695312 C 204.867188 392.0625 204.859375 392.421875 204.835938 392.785156 C 204.769531 394.363281 204.585938 395.933594 204.28125 397.484375 C 203.867188 399.742188 203.265625 401.972656 202.675781 404.199219 C 201.183594 409.773438 199.578125 415.550781 196.667969 420.445312 C 196.375 420.941406 196.0625 421.433594 195.738281 421.90625 L 175.28125 421.90625 C 175.441406 421.417969 175.609375 420.933594 175.769531 420.445312 C 179.253906 410.109375 182.738281 399.773438 186.21875 389.445312 C 187.285156 386.285156 188.351562 383.109375 189.105469 379.863281 C 189.964844 375.851562 190.554688 371.789062 190.867188 367.695312 C 191.667969 359.21875 192.199219 350.722656 192.453125 342.210938 C 192.546875 339.15625 192.613281 336.03125 193.597656 333.132812 C 194.523438 330.773438 195.746094 328.542969 197.238281 326.492188 C 199.351562 323.3125 201.460938 320.128906 203.574219 316.945312 C 204.75 315.175781 205.984375 313.355469 207.796875 312.25 C 209.308594 311.320312 211.105469 310.984375 212.699219 310.203125 C 213.703125 309.632812 214.664062 308.996094 215.578125 308.292969 C 217.960938 306.605469 220.761719 304.828125 222.8125 306.550781 C 223.144531 306.828125 223.433594 307.15625 223.660156 307.527344 C 223.777344 307.707031 223.882812 307.894531 223.976562 308.089844 C 225.949219 312.359375 219.007812 316.046875 216.355469 317.925781 Z M 216.355469 317.925781 "/>
<path style=" stroke:none;fill-rule:nonzero;fill:rgb(18.431373%,18.039216%,25.490196%);fill-opacity:1;" d="M 283.757812 421.90625 L 188.996094 421.90625 C 189.507812 421.4375 190.011719 420.949219 190.5 420.445312 C 190.574219 420.371094 190.640625 420.296875 190.710938 420.226562 C 194.335938 416.457031 195.164062 411.828125 196.980469 406.925781 C 198.347656 403.234375 199.714844 399.539062 201.082031 395.851562 C 201.296875 395.132812 201.652344 394.464844 202.125 393.882812 C 202.523438 393.476562 203.019531 393.175781 203.566406 393.019531 C 203.980469 392.894531 204.40625 392.816406 204.835938 392.785156 C 205.453125 392.746094 206.070312 392.746094 206.6875 392.785156 C 223.691406 393.664062 240.683594 394.734375 257.660156 396 C 259.855469 396.167969 262.046875 396.335938 264.238281 396.503906 C 266.027344 397.835938 267.796875 399.246094 269.484375 400.738281 C 274.972656 405.566406 279.730469 411.25 282.457031 417.964844 C 282.785156 418.777344 283.082031 419.601562 283.332031 420.445312 C 283.492188 420.925781 283.632812 421.417969 283.757812 421.90625 Z M 283.757812 421.90625 "/>
<path style=" stroke:none;fill-rule:nonzero;fill:rgb(18.431373%,18.039216%,25.490196%);fill-opacity:1;" d="M 255.117188 247.410156 L 235.671875 237.210938 L 208.820312 241.382812 L 203.265625 265.945312 L 217.09375 265.414062 L 220.957031 256.390625 L 220.957031 265.265625 L 227.339844 265.019531 L 231.042969 250.652344 L 233.355469 265.945312 L 256.042969 265.484375 Z M 255.117188 247.410156 "/>
<path style=" stroke:none;fill-rule:nonzero;fill:rgb(18.431373%,18.039216%,25.490196%);fill-opacity:1;" d="M 283.757812 421.90625 L 262.359375 421.90625 C 262.207031 421.425781 262.0625 420.933594 261.921875 420.445312 C 260.410156 415.003906 259.300781 409.457031 258.605469 403.855469 C 258.378906 402.253906 258.179688 400.644531 257.996094 399.042969 C 257.882812 398.023438 257.769531 397.015625 257.660156 396 C 256.433594 384.703125 255.492188 373.300781 252.042969 362.488281 C 251.625 361.179688 251.171875 359.878906 250.734375 358.574219 C 249.925781 356.332031 249.289062 354.03125 248.835938 351.691406 C 247.898438 346.339844 248.601562 340.792969 247.636719 335.445312 C 247.09375 332.460938 246.019531 329.835938 245.371094 327.101562 C 244.957031 325.449219 244.792969 323.746094 244.890625 322.046875 C 246.464844 320.558594 248.445312 319.574219 250.582031 319.222656 C 251.320312 319.097656 252.152344 319.003906 252.597656 318.410156 C 252.859375 317.960938 252.976562 317.4375 252.933594 316.917969 C 252.984375 313.46875 252.789062 310.019531 252.34375 306.597656 C 252.195312 305.398438 252.011719 304.199219 251.792969 303.003906 C 251.785156 302.945312 251.773438 302.894531 251.765625 302.835938 C 253.546875 302.0625 255.558594 302.054688 257.492188 302.0625 C 259.605469 302.070312 261.710938 302.070312 263.816406 302.074219 C 267.710938 302.089844 271.605469 302.101562 275.5 302.113281 C 279.125 302.121094 282.871094 302.15625 286.167969 303.65625 C 289.574219 305.214844 292.160156 308.21875 293.871094 311.554688 C 295.578125 314.890625 296.507812 318.5625 297.347656 322.214844 C 297.582031 323.222656 297.703125 324.257812 297.714844 325.292969 C 297.875 333.53125 291.734375 341.824219 291.121094 350.242188 C 290.925781 352.972656 291.152344 355.722656 290.902344 358.453125 C 290.652344 361.1875 289.921875 363.863281 289.792969 366.601562 C 289.785156 366.738281 289.777344 366.886719 289.777344 367.023438 C 289.695312 370.585938 290.734375 374.074219 291.933594 377.433594 C 293.789062 382.648438 296.046875 387.703125 298.378906 392.726562 C 300.628906 397.59375 302.9375 402.433594 305.011719 407.367188 C 306.09375 409.652344 306.820312 412.09375 307.167969 414.601562 C 307.398438 416.613281 307.015625 418.652344 306.066406 420.445312 C 305.820312 420.886719 305.53125 421.300781 305.195312 421.679688 L 305.179688 421.695312 C 305.117188 421.769531 305.050781 421.839844 304.984375 421.90625 Z M 283.757812 421.90625 "/>
<path style=" stroke:none;fill-rule:nonzero;fill:rgb(100%,72.156863%,72.156863%);fill-opacity:1;" d="M 304.136719 414.402344 C 304.046875 415.375 303.78125 416.324219 303.355469 417.203125 C 303.316406 417.292969 303.28125 417.371094 303.246094 417.460938 C 302.820312 418.460938 302.390625 419.449219 301.945312 420.445312 C 301.726562 420.925781 301.503906 421.417969 301.277344 421.90625 L 289.179688 421.90625 C 289.617188 421.449219 290.019531 420.960938 290.390625 420.445312 C 292.246094 417.863281 293.320312 414.722656 295.214844 411.9375 C 295.472656 411.554688 295.765625 411.203125 296.097656 410.882812 C 299.128906 407.941406 304.324219 408.542969 304.136719 414.402344 Z M 304.136719 414.402344 "/>
<path style=" stroke:none;fill-rule:nonzero;fill:rgb(18.431373%,18.039216%,25.490196%);fill-opacity:1;" d="M 312.011719 421.90625 C 312.167969 421.425781 312.296875 420.9375 312.402344 420.445312 C 312.488281 420.058594 312.5625 419.675781 312.621094 419.289062 C 313.007812 416.734375 313 414.125 313.605469 411.617188 C 314.460938 408.023438 317.027344 403.773438 314.914062 400.753906 C 316.558594 400.414062 318.105469 399.722656 319.453125 398.71875 C 320.707031 397.621094 321.441406 395.71875 320.679688 394.226562 C 319.925781 392.757812 317.886719 391.785156 318.167969 390.152344 C 318.304688 389.636719 318.546875 389.152344 318.882812 388.734375 C 321.148438 385.160156 321.074219 380.578125 318.699219 377.074219 C 318.035156 376.125 317.214844 375.289062 316.609375 374.296875 C 315.945312 373.078125 315.4375 371.785156 315.097656 370.441406 C 312.988281 363.632812 309.875 357.179688 305.867188 351.289062 C 304.980469 350.15625 304.289062 348.878906 303.828125 347.515625 C 303.558594 346.035156 303.503906 344.527344 303.667969 343.03125 C 303.816406 337.121094 301.609375 331.351562 298.429688 326.375 C 298.195312 326.011719 297.953125 325.652344 297.714844 325.292969 C 294.644531 320.765625 290.835938 316.792969 287.042969 312.851562 C 285.480469 313.582031 284.097656 314.058594 283.289062 315.578125 C 282.890625 316.4375 282.644531 317.359375 282.566406 318.300781 C 281.527344 325.542969 280.628906 332.828125 279.925781 340.105469 C 279.578125 343.785156 279.21875 347.492188 279.636719 351.164062 C 280.050781 354.835938 281.300781 358.515625 283.785156 361.246094 C 285.339844 362.957031 287.316406 364.230469 289.003906 365.808594 C 289.273438 366.066406 289.535156 366.328125 289.792969 366.601562 C 291.007812 367.898438 292.089844 369.316406 293.015625 370.835938 C 297.0625 377.382812 298.941406 385.046875 298.378906 392.726562 C 298.277344 394.113281 298.09375 395.492188 297.828125 396.855469 C 297.507812 398.804688 296.851562 400.6875 295.886719 402.414062 C 295.117188 403.679688 294.109375 404.785156 293.417969 406.09375 C 292.722656 407.402344 292.394531 409.035156 293.082031 410.34375 C 294.109375 410.339844 295.132812 410.523438 296.097656 410.882812 C 298.375 411.761719 300.351562 413.273438 301.796875 415.234375 C 302.332031 415.941406 302.816406 416.6875 303.246094 417.460938 C 303.785156 418.425781 304.269531 419.421875 304.691406 420.445312 C 304.867188 420.847656 305.035156 421.261719 305.195312 421.679688 C 305.230469 421.753906 305.261719 421.828125 305.285156 421.90625 Z M 312.011719 421.90625 "/>
<path style=" stroke:none;fill-rule:nonzero;fill:rgb(0.392157%,76.470588%,4.705882%);fill-opacity:1;" d="M 252.269531 294.644531 L 236.777344 301.410156 L 233.140625 301.769531 L 216.621094 298.175781 L 217.351562 312.886719 L 233.5 305.410156 L 237.136719 305.050781 L 254.4375 309.214844 Z M 252.269531 294.644531 "/>
<path style=" stroke:none;fill-rule:nonzero;fill:rgb(18.431373%,18.039216%,25.490196%);fill-opacity:1;" d="M 283.332031 420.445312 C 283.492188 420.925781 283.632812 421.417969 283.757812 421.90625 L 289.179688 421.90625 C 289.617188 421.449219 290.019531 420.960938 290.390625 420.445312 Z M 140.117188 99.324219 L 140.117188 421.90625 L 342.164062 421.90625 L 342.164062 99.324219 Z M 340.703125 420.445312 L 141.578125 420.445312 L 141.578125 100.785156 L 340.703125 100.785156 Z M 283.332031 420.445312 C 283.492188 420.925781 283.632812 421.417969 283.757812 421.90625 L 289.179688 421.90625 C 289.617188 421.449219 290.019531 420.960938 290.390625 420.445312 Z M 283.332031 420.445312 "/>
<path style=" stroke:none;fill-rule:nonzero;fill:rgb(0.392157%,76.470588%,4.705882%);fill-opacity:1;" d="M 206.503906 240.449219 L 206.628906 239.820312 C 206.667969 239.636719 210.242188 220.933594 201.027344 203.40625 L 200.363281 202.136719 L 201.777344 202.339844 C 202.183594 202.398438 211.488281 203.894531 218.160156 218.597656 C 218.746094 216.355469 219.335938 211.644531 217.503906 203.703125 L 217.242188 202.574219 L 218.375 202.824219 C 218.726562 202.902344 226.753906 204.796875 229.9375 214.558594 L 242.574219 203.851562 L 242.574219 221.242188 C 245.976562 219.511719 256.398438 214.855469 263.027344 219.003906 L 264.039062 219.636719 L 263.015625 220.25 C 262.929688 220.300781 254.785156 225.246094 253.171875 230.25 C 255.074219 230.265625 259.609375 230.332031 264.101562 230.601562 C 275.636719 231.292969 276.601562 232.625 276.601562 233.816406 L 276.601562 234.234375 L 276.242188 234.445312 C 276.039062 234.566406 255.785156 246.652344 255.335938 256.085938 L 255.289062 257.054688 Z M 252.242188 231.707031 L 251.378906 231.707031 L 251.523438 230.855469 C 252.324219 226.039062 258.621094 221.394531 261.191406 219.679688 C 253.949219 216.480469 242.328125 223.027344 242.207031 223.097656 L 241.113281 223.722656 L 241.113281 207.007812 L 229.15625 217.136719 L 228.851562 216.03125 C 226.757812 208.339844 221.53125 205.519531 219.203125 204.621094 C 221.605469 216.148438 218.960938 220.75 218.84375 220.945312 L 218.09375 222.195312 L 217.539062 220.847656 C 212.707031 209.097656 206.042969 205.359375 203.085938 204.238281 C 210.6875 219.933594 208.699219 236.105469 208.171875 239.472656 L 253.976562 255.0625 C 255.441406 246.019531 271.191406 235.835938 274.796875 233.613281 C 272.570312 232.429688 261.824219 231.707031 252.242188 231.707031 Z M 252.242188 231.707031 "/>
<path style=" stroke:none;fill-rule:nonzero;fill:rgb(0.392157%,76.470588%,4.705882%);fill-opacity:1;" d="M 196.691406 195.023438 C 196.691406 193.574219 197.863281 192.398438 199.3125 192.398438 C 200.757812 192.398438 201.933594 193.574219 201.933594 195.023438 C 201.933594 196.472656 200.757812 197.644531 199.3125 197.644531 C 197.863281 197.644531 196.691406 196.472656 196.691406 195.023438 Z M 198.152344 195.023438 C 198.152344 195.664062 198.671875 196.183594 199.3125 196.183594 C 199.953125 196.183594 200.472656 195.664062 200.472656 195.023438 C 200.472656 194.382812 199.953125 193.863281 199.3125 193.863281 C 198.671875 193.863281 198.152344 194.382812 198.152344 195.023438 Z M 198.152344 195.023438 "/>
<path style=" stroke:none;fill-rule:nonzero;fill:rgb(0.392157%,76.470588%,4.705882%);fill-opacity:1;" d="M 215.59375 195.023438 C 215.59375 193.574219 216.769531 192.398438 218.214844 192.398438 C 219.664062 192.398438 220.835938 193.574219 220.835938 195.023438 C 220.835938 196.472656 219.664062 197.644531 218.214844 197.644531 C 216.769531 197.644531 215.597656 196.472656 215.59375 195.023438 Z M 217.054688 195.023438 C 217.054688 195.664062 217.574219 196.183594 218.214844 196.183594 C 218.855469 196.183594 219.375 195.664062 219.375 195.023438 C 219.375 194.382812 218.855469 193.863281 218.214844 193.863281 C 217.574219 193.863281 217.058594 194.382812 217.054688 195.023438 Z M 217.054688 195.023438 "/>
<path style=" stroke:none;fill-rule:nonzero;fill:rgb(0.392157%,76.470588%,4.705882%);fill-opacity:1;" d="M 243.003906 199.753906 C 243.003906 198.304688 244.179688 197.128906 245.625 197.128906 C 247.074219 197.128906 248.246094 198.304688 248.246094 199.753906 C 248.246094 201.203125 247.074219 202.378906 245.625 202.378906 C 244.179688 202.375 243.007812 201.203125 243.003906 199.753906 Z M 244.464844 199.753906 C 244.464844 200.394531 244.984375 200.914062 245.625 200.914062 C 246.265625 200.914062 246.785156 200.394531 246.785156 199.753906 C 246.785156 199.113281 246.265625 198.59375 245.625 198.59375 C 244.984375 198.59375 244.46875 199.113281 244.464844 199.753906 Z M 244.464844 199.753906 "/>
<path style=" stroke:none;fill-rule:nonzero;fill:rgb(0.392157%,76.470588%,4.705882%);fill-opacity:1;" d="M 279.867188 231.921875 C 279.867188 230.472656 281.039062 229.300781 282.488281 229.300781 C 283.933594 229.300781 285.109375 230.472656 285.109375 231.921875 C 285.109375 233.371094 283.933594 234.546875 282.488281 234.546875 C 281.039062 234.546875 279.867188 233.371094 279.867188 231.921875 Z M 281.328125 231.921875 C 281.328125 232.5625 281.847656 233.082031 282.488281 233.082031 C 283.128906 233.082031 283.648438 232.5625 283.648438 231.921875 C 283.648438 231.28125 283.128906 230.761719 282.488281 230.761719 C 281.847656 230.761719 281.328125 231.28125 281.328125 231.921875 Z M 281.328125 231.921875 "/>
<path style=" stroke:none;fill-rule:nonzero;fill:rgb(0.392157%,76.470588%,4.705882%);fill-opacity:1;" d="M 266.632812 215.839844 C 266.632812 214.390625 267.808594 213.214844 269.253906 213.214844 C 270.703125 213.214844 271.875 214.390625 271.875 215.839844 C 271.875 217.289062 270.703125 218.460938 269.253906 218.460938 C 267.808594 218.460938 266.636719 217.285156 266.632812 215.839844 Z M 268.09375 215.839844 C 268.09375 216.480469 268.613281 217 269.253906 217 C 269.894531 217 270.414062 216.480469 270.414062 215.839844 C 270.414062 215.195312 269.894531 214.675781 269.253906 214.675781 C 268.613281 214.679688 268.097656 215.199219 268.09375 215.839844 Z M 268.09375 215.839844 "/>
<path style=" stroke:none;fill-rule:nonzero;fill:rgb(24.705882%,23.921569%,33.72549%);fill-opacity:1;" d="M 8.769531 472.015625 L 673 472.015625 L 673 473.476562 L 8.769531 473.476562 Z M 8.769531 472.015625 "/>
</g>
</svg>
